<svg width="18" height="36" viewBox="0 0 18 36" fill="none" xmlns="http://www.w3.org/2000/svg">
<path d="M7.55 36V31.8C5.65 31.4667 4.09167 30.7417 2.875 29.625C1.65833 28.5083 0.783333 27.1 0.25 25.4L3.05 24.25C3.61667 25.85 4.43333 27.0417 5.5 27.825C6.56667 28.6083 7.85 29 9.35 29C10.95 29 12.2667 28.6 13.3 27.8C14.3333 27 14.85 25.9 14.85 24.5C14.85 23.0333 14.3917 21.9 13.475 21.1C12.5583 20.3 10.8333 19.4833 8.3 18.65C5.9 17.8833 4.10833 16.8667 2.925 15.6C1.74167 14.3333 1.15 12.75 1.15 10.85C1.15 9.01667 1.74167 7.48333 2.925 6.25C4.10833 5.01667 5.65 4.31667 7.55 4.15V0H10.55V4.15C12.05 4.31667 13.3417 4.80833 14.425 5.625C15.5083 6.44167 16.3333 7.48333 16.9 8.75L14.1 9.95C13.6333 8.88333 13.0083 8.10833 12.225 7.625C11.4417 7.14167 10.4167 6.9 9.15 6.9C7.61667 6.9 6.4 7.25 5.5 7.95C4.6 8.65 4.15 9.6 4.15 10.8C4.15 12.0667 4.65 13.0917 5.65 13.875C6.65 14.6583 8.5 15.4667 11.2 16.3C13.4667 17 15.1417 18.0083 16.225 19.325C17.3083 20.6417 17.85 22.3 17.85 24.3C17.85 26.4 17.2333 28.0917 16 29.375C14.7667 30.6583 12.95 31.4833 10.55 31.85V36H7.55Z" fill="#FFBF00"/>
</svg>
