<svg width="200" height="250" viewBox="0 0 200 250" fill="none" xmlns="http://www.w3.org/2000/svg">
<path d="M100 121.875C106.001 121.875 111.123 119.74 115.366 115.469C119.608 111.198 121.729 106.042 121.729 100C121.729 93.9583 119.608 88.8021 115.366 84.5312C111.123 80.2604 106.001 78.125 100 78.125C93.9986 78.125 88.8767 80.2604 84.6343 84.5312C80.392 88.8021 78.2708 93.9583 78.2708 100C78.2708 106.042 80.392 111.198 84.6343 115.469C88.8767 119.74 93.9986 121.875 100 121.875ZM100 225.312C127.524 200.104 147.856 177.24 160.997 156.719C174.138 136.198 180.708 118.125 180.708 102.5C180.708 77.9167 172.896 57.8125 157.272 42.1875C141.648 26.5625 122.557 18.75 100 18.75C77.443 18.75 58.3524 26.5625 42.7281 42.1875C27.1038 57.8125 19.2916 77.9167 19.2916 102.5C19.2916 118.125 26.0173 136.198 39.4687 156.719C52.9201 177.24 73.0972 200.104 100 225.312ZM100 250C66.6819 221.458 41.7968 194.948 25.3448 170.469C8.89267 145.99 0.666626 123.333 0.666626 102.5C0.666626 71.25 10.6517 46.3542 30.6218 27.8125C50.592 9.27083 73.718 0 100 0C126.282 0 149.408 9.27083 169.378 27.8125C189.348 46.3542 199.333 71.25 199.333 102.5C199.333 123.333 191.107 145.99 174.655 170.469C158.203 194.948 133.318 221.458 100 250Z" fill="#FFB800"/>
</svg>
