<svg width="1058" height="1707" viewBox="0 0 1058 1707" fill="none" xmlns="http://www.w3.org/2000/svg">
<g clip-path="url(#clip0_17_2)">
<path d="M506 1.46659C493.333 2.66659 488.667 4.26659 483.6 9.06659C480.533 11.9999 478.267 12.6666 469.6 13.4666C464 13.9999 456.533 15.5999 453.067 17.1999C447.6 19.4666 446.667 20.3999 446.667 23.7333C446.667 25.7333 447.6 28.6666 448.667 30.1333C451.6 33.9999 451.067 37.4666 446.667 41.9999C443.733 45.0666 441.733 49.3333 439.467 57.8666C436.4 68.6666 435.6 70.2666 428.133 77.9999C418.933 87.5999 418.267 90.2666 422.933 99.5999L425.867 105.6L422.933 110.4C421.333 113.2 417.467 120.133 414.4 126.133C408 138.667 408.133 142.4 414.933 145.467C419.867 147.6 419.6 145.733 417.867 168.133C417.067 178.667 417.2 179.067 423.067 183.067C425.2 184.533 425.2 185.067 422.667 191.733C421.2 195.6 420 200.933 420 203.6C420 210.133 424.4 218.8 429.6 222.667C433.6 225.6 434.4 225.733 450.933 224.8C460.267 224.4 468 224.4 468 224.8C468 227.733 457.467 244.8 453.2 248.667C447.467 253.733 445.2 254.133 430.933 252.133C422.267 250.8 414 246.533 397.6 235.067C387.2 227.733 369.067 218.667 354 213.333C336.133 206.933 318.267 206.4 292 211.333C281.333 213.333 268.533 216.133 263.467 217.6C252.667 220.667 251.2 220.267 240.8 211.467C224.133 197.333 210.8 192 192.133 192C185.867 192.133 176.933 192.933 172.267 193.867C163.867 195.733 163.733 195.733 162.4 192.667C161.333 190.267 161.733 184.667 164 170C166.4 154.8 166.8 148.667 165.867 142.267C165.2 137.733 164.8 129.2 164.8 123.2C164.8 112.667 164.933 112.267 173.867 94.5333C184.4 73.8666 189.6 65.8666 192.933 65.0666C197.467 63.8666 203.333 66.6666 212.533 73.9999C219.467 79.5999 222.8 81.3333 226.133 81.3333C230.8 81.3333 232.8 83.1999 232.133 87.1999C231.733 90.2666 238.667 97.7333 246.267 102.267C253.2 106.267 267.067 110.667 273.2 110.667C284.533 110.667 298.133 102.4 303.6 92.1333C306.4 86.6666 306.667 84.6666 306.667 65.0666C306.667 49.0666 306.133 42.6666 304.667 39.0666C301.6 31.5999 298.8 29.0666 294.667 29.9999C291.867 30.6666 290.4 29.7333 286.267 24.6666L281.2 18.6666H271.333C262.533 18.6666 259.467 17.8666 246.4 12.6666C227.467 4.93326 214.267 2.66659 189.333 2.66659C168 2.66659 157.733 4.66659 149.467 10.5333C144.667 13.9999 139.6 22.2666 137.2 30.6666C136 35.0666 132.8 39.4666 125.467 47.3333C119.867 53.1999 111.733 62.2666 107.333 67.3333C102.933 72.5333 92.4 84.2666 83.7333 93.5999C60.2667 119.333 37.0667 148.8 26.9333 166.267C20.2667 177.467 10.9333 205.2 9.33334 218.133C8.40001 225.333 6.66667 232 4.53334 236.133C-3.06666 251.2 -0.933326 260.133 11.7333 266.267C17.8667 269.333 20 271.2 22.6667 276.4C26.4 283.333 32.5333 287.2 59.2 298.8C67.3333 302.267 82.4 311.067 98.2667 321.467C133.467 344.533 151.6 353.2 181.067 360.533C207.6 367.2 227.467 368.267 248 364C254.933 362.533 261.6 361.333 262.8 361.333C265.733 361.333 266.4 364.267 268 386C271.6 435.867 278.267 465.6 292 493.733C297.733 505.333 315.067 527.067 333.333 545.067C349.067 560.8 346.933 557.333 371.467 609.333C389.2 647.067 392.933 656 402.267 682C413.6 713.733 413.733 715.2 407.2 724.133C402.267 730.933 402.133 731.467 401.2 745.867C400.267 760.133 400 761.2 392.933 776C383.733 795.6 383.2 797.333 380.667 817.333C378.533 833.733 371.333 863.733 361.333 898.667C354.933 920.8 349.6 936.133 337.6 968C327.2 995.2 322.533 1014.13 318.4 1044.67C316 1062.53 315.867 1066.93 317.2 1086.67C318 1098.8 319.467 1111.6 320.533 1115.33C321.6 1118.93 323.333 1125.33 324.533 1129.33C327.6 1140 327.2 1150 322.667 1173.87C320.4 1185.47 318.667 1198.67 318.667 1203.2C318.533 1218.13 317.467 1220.67 305.333 1235.33C293.333 1249.87 279.2 1272.27 274.8 1283.73C272.533 1289.87 269.333 1302.13 267.733 1311.07C264.133 1332.27 264.933 1359.6 270.8 1411.33C274.533 1445.07 274.8 1451.33 274.267 1476C273.333 1512.4 269.2 1534.27 259.2 1555.87C253.6 1568 252.8 1568.93 233.867 1584.8C225.733 1591.6 210.667 1605.47 200.533 1615.73C168 1648.27 165.733 1658.4 185.6 1681.47C197.733 1695.6 198.667 1696.27 210.267 1702.13C222.4 1708.27 227.067 1708 244.267 1699.87C261.333 1692 263.6 1690 276.4 1672.93C282.667 1664.8 292.667 1653.2 298.667 1647.47C304.933 1641.33 313.333 1631.33 318.4 1623.6C323.333 1616.27 329.067 1607.73 331.067 1604.67C336 1597.2 337.333 1581.73 334.133 1565.2C326.933 1527.33 339.067 1488.93 374.933 1436C408.267 1386.67 408.133 1387.07 409.467 1343.33C411.067 1292.27 415.333 1275.73 434.267 1247.6C451.867 1221.2 458 1208 466 1178.67C469.467 1165.73 479.333 1143.87 486.133 1133.73C488.267 1130.67 498.4 1117.47 508.8 1104.4C525.733 1082.93 530.133 1076.53 542 1055.47C546.667 1047.2 547.867 1048.27 553.333 1066.67C559.333 1087.33 561.333 1096.67 561.333 1105.2C561.333 1115.07 566.8 1143.47 571.333 1157.2C573.467 1163.47 574.667 1169.6 574.267 1171.73C573.867 1173.73 572 1182.53 570 1191.33C566.8 1206 566.533 1208.8 567.333 1224.8C568.4 1244.67 569.733 1240.4 552.533 1272C541.333 1292.53 524.933 1331.73 519.333 1351.33C514.267 1368.53 514.267 1380.4 519.333 1408.67C521.733 1422.93 523.2 1436.67 523.6 1450.13C524.267 1469.47 524.133 1470.93 520 1487.47C515.333 1506.27 503.2 1543.47 491.333 1576L483.733 1596.67L484.533 1614.27C485.333 1634 486.667 1638.8 493.6 1644.8C499.067 1649.6 501.2 1650 530.4 1652C559.2 1654 571.2 1658.27 588 1672.8C597.2 1680.67 601.333 1682.4 613.6 1683.47C621.333 1684.13 625.2 1685.33 632 1689.2C640.133 1693.73 641.333 1694 651.6 1693.73C666 1693.33 672.4 1691.47 678.4 1686.13C681.067 1683.73 684.667 1681.2 686.4 1680.8C691.333 1679.2 695.067 1670.13 694.4 1661.47C693.733 1652 691.2 1646.93 685.6 1643.07C681.333 1640.27 662.4 1633.73 649.733 1630.67C645.467 1629.6 642.667 1627.6 637.2 1621.2C632.267 1615.6 623.867 1608.8 608.8 1598.67C580.4 1579.47 571.733 1572.4 570.133 1566.93C567.6 1557.87 578.533 1524.13 594.8 1491.87C606.267 1468.8 616.133 1452.27 631.867 1429.33C639.6 1418 647.6 1406.27 649.467 1403.33C662 1384 666.267 1365.73 669.333 1317.33C671.067 1290.67 671.6 1289.07 684.933 1271.07C697.867 1253.73 701.733 1241.73 704 1212.67C706.667 1178.53 713.467 1162.27 745.6 1114.53C771.733 1075.73 772.933 1070.93 770.8 1015.47C770 994.133 768.4 970.933 767.333 963.867C766 954.8 765.467 941.333 765.6 917.2C765.867 857.467 761.6 832.933 743.867 794.667C739.467 785.067 736.4 775.867 734.267 765.333C730.667 748.4 728 741.733 718.533 726.267C710.267 712.933 705.467 699.467 703.867 685.333C703.067 677.6 701.067 670.133 697.733 662C693.2 650.8 692.8 648.8 692.267 633.2C691.733 616.933 693.2 599.2 696.133 588.933C699.067 578.4 721.467 549.467 748.4 521.467C767.733 501.333 775.2 491.467 781.067 478.933C784.133 472.133 784.533 469.867 784.267 457.333C784.133 449.6 783.6 441.6 783.2 439.467C782.4 436 782.667 435.733 785.467 436.4C787.2 436.8 794.533 439.6 801.733 442.667C829.6 454.4 850.933 457.333 884.8 454.133C897.2 452.933 910.667 451.067 914.533 449.867C930.4 445.2 955.733 434.4 964 428.8C972.667 422.933 972.8 422.933 986.667 422.267C1002.67 421.467 1013.73 418.4 1030.13 410.533C1042.53 404.533 1055.47 393.733 1056.53 388.267C1057.07 386.267 1056.53 376.933 1055.33 367.333C1054 356.267 1053.33 338 1053.33 316.8C1053.33 271.6 1052.13 266.933 1030.4 231.333C1020.53 215.333 1017.6 209.067 1009.6 186.667C996.133 148.933 992.4 136.667 990.533 124.667C989.733 118.8 988.267 113.2 987.6 112.267C984.933 108.933 975.867 105.2 967.6 104.133C962.933 103.467 952.267 99.9999 942.933 95.9999C930.4 90.7999 925.467 89.3333 922.533 89.9999C919.733 90.6666 917.333 89.9999 913.6 87.7333C910.133 85.5999 905.6 84.3999 898.667 83.7333C893.2 83.1999 886.133 82.3999 882.933 81.8666C878 81.0666 876.8 81.4666 873.867 84.1333C870.8 86.9333 870.133 87.0666 864.667 85.5999C850.4 81.7333 845.6 85.1999 840.533 103.067C838.8 109.2 835.6 117.733 833.333 122C831.2 126.133 829.333 131.333 829.333 133.333C829.333 137.733 839.867 155.333 844.267 158.4C846 159.6 847.867 161.333 848.4 162.267C849.067 163.333 852 164 855.467 164C860.667 164 861.6 164.4 863.067 167.6C863.867 169.733 865.2 171.733 866 172.267C868.8 174.267 877.467 173.333 881.2 170.533C884.133 168.4 888.267 167.467 900.133 166.4C908.8 165.6 916.4 164.267 918 163.2C924.667 158.533 929.467 162.533 934.667 177.333C940.533 194.133 940 200.533 929.867 235.6C924 255.867 920 276.267 920 285.733C920 288.533 919.6 290.667 919.067 290.4C918.4 290.133 912.933 287.467 906.667 284.4C890.133 276.267 876 271.867 865.6 271.733C854.933 271.467 851.333 273.067 837.6 284.133C832.267 288.533 826.667 292 825.2 292C822 292 796.267 284.533 771.333 276.4C752.933 270.267 752.4 270.267 734.667 270.133C718.667 270.133 714.667 270.667 698.667 274.667C674.667 280.533 661.2 280.8 650.667 275.6C643.067 271.867 617.733 251.333 611.333 243.733L607.6 239.333L608.533 223.467C609.733 203.467 613.2 195.6 624.933 185.733C640.133 172.933 642.667 170 642.667 164.8C642.667 161.6 644.267 157.6 647.333 152.8C653.333 143.333 656.133 132.667 655.867 119.6C655.733 113.067 656.267 108.533 657.333 107.333C659.333 104.933 659.333 93.8666 657.333 88.5333C656.533 86.3999 653.067 80.5333 649.733 75.4666C646.267 70.2666 642.4 62.3999 641.067 57.7333C638.133 48.1333 632.667 40.3999 619.867 27.7333C597.2 5.33326 558 -3.73341 506 1.46659Z" fill="#F9A606"/>
</g>
<defs>
<clipPath id="clip0_17_2">
<rect width="1057.33" height="1706.67" fill="white"/>
</clipPath>
</defs>
</svg>
